<?xml version="1.0" encoding="UTF-8" standalone="no"?>
<!DOCTYPE svg PUBLIC "-//W3C//DTD SVG 1.1//EN" "http://www.w3.org/Graphics/SVG/1.1/DTD/svg11.dtd">
<svg width="100%" height="100%" viewBox="0 0 800 800" version="1.1" xmlns="http://www.w3.org/2000/svg" xmlns:xlink="http://www.w3.org/1999/xlink" xml:space="preserve" xmlns:serif="http://www.serif.com/" style="fill-rule:evenodd;clip-rule:evenodd;stroke-linejoin:round;stroke-miterlimit:2;">
    <g transform="matrix(1,0,0,1,-850,0)">
        <rect id="Artboard2" x="850" y="0" width="800" height="800" style="fill:none;"/>
        <g id="Artboard21" serif:id="Artboard2">
            <g transform="matrix(0.9,0,0,0.9,125,40)">
                <g transform="matrix(7.09147e-17,1.15813,-1.27173,7.78712e-17,1794.1,-1110.91)">
                    <rect x="1419.74" y="113.31" width="115.129" height="104.844" style="fill:rgb(245,158,11);"/>
                </g>
                <g transform="matrix(7.09147e-17,1.15813,-1.27173,7.78712e-17,1660.77,-1110.91)">
                    <rect x="1074.36" y="113.31" width="115.129" height="104.844" style="fill:white;"/>
                </g>
                <g transform="matrix(7.09147e-17,1.15813,-1.27173,7.78712e-17,1527.43,-1110.91)">
                    <rect x="1304.61" y="113.31" width="115.129" height="104.844" style="fill:white;"/>
                </g>
                <g transform="matrix(7.09147e-17,1.15813,-1.27173,7.78712e-17,1527.43,-1110.91)">
                    <rect x="1189.49" y="113.31" width="115.129" height="104.844" style="fill:white;"/>
                </g>
                <g transform="matrix(7.09147e-17,1.15813,-1.27173,7.78712e-17,1527.43,-1110.91)">
                    <rect x="1419.74" y="113.31" width="115.129" height="104.844" style="fill:white;"/>
                </g>
                <g transform="matrix(7.09147e-17,1.15813,-1.27173,7.78712e-17,1527.43,-1110.91)">
                    <rect x="1074.36" y="113.31" width="115.129" height="104.844" style="fill:white;"/>
                </g>
                <g transform="matrix(7.09147e-17,1.15813,-1.27173,7.78712e-17,1394.1,-1110.91)">
                    <rect x="1419.74" y="113.31" width="115.129" height="104.844" style="fill:rgb(249,196,64);"/>
                </g>
                <g transform="matrix(7.09147e-17,1.15813,-1.27173,7.78712e-17,1394.1,-1110.91)">
                    <rect x="1074.36" y="113.31" width="115.129" height="104.844" style="fill:white;"/>
                </g>
                <g transform="matrix(7.09147e-17,1.15813,-1.27173,7.78712e-17,1260.77,-1110.91)">
                    <rect x="1189.49" y="113.31" width="115.129" height="104.844" style="fill:rgb(249,196,64);"/>
                </g>
                <g transform="matrix(7.09147e-17,1.15813,-1.27173,7.78712e-17,1260.77,-1110.91)">
                    <rect x="1419.74" y="113.31" width="115.129" height="104.844" style="fill:rgb(249,196,64);"/>
                </g>
                <g transform="matrix(7.09147e-17,1.15813,-1.27173,7.78712e-17,1260.77,-1110.91)">
                    <rect x="1304.61" y="113.31" width="115.129" height="104.844" style="fill:rgb(249,196,64);"/>
                </g>
                <g transform="matrix(7.09147e-17,1.15813,-1.27173,7.78712e-17,1260.77,-1110.91)">
                    <rect x="1074.36" y="113.31" width="115.129" height="104.844" style="fill:rgb(249,196,64);"/>
                </g>
            </g>
        </g>
    </g>
</svg>
